<?xml version="1.0" encoding="UTF-8" standalone="no"?>
<!DOCTYPE svg PUBLIC "-//W3C//DTD SVG 1.1//EN"
 "http://www.w3.org/Graphics/SVG/1.1/DTD/svg11.dtd">
<!-- Generated by graphviz version 2.43.0 (0)
 -->
<!-- Title: %3 Pages: 1 -->
<svg width="2193pt" height="476pt"
 viewBox="0.00 0.00 2192.83 476.00" xmlns="http://www.w3.org/2000/svg" xmlns:xlink="http://www.w3.org/1999/xlink">
<g id="graph0" class="graph" transform="scale(1 1) rotate(0) translate(4 472)">
<title>%3</title>
<polygon fill="white" stroke="transparent" points="-4,4 -4,-472 2188.83,-472 2188.83,4 -4,4"/>
<!-- [root] aws_db_instance.poc_screena (expand) -->
<g id="node1" class="node">
<title>[root] aws_db_instance.poc_screena (expand)</title>
<polygon fill="none" stroke="black" points="779.83,-324 552.83,-324 552.83,-288 779.83,-288 779.83,-324"/>
<text text-anchor="middle" x="666.33" y="-302.3" font-family="Times,serif" font-size="14.00">aws_db_instance.poc_screena</text>
</g>
<!-- [root] aws_db_parameter_group.poc_screena (expand) -->
<g id="node2" class="node">
<title>[root] aws_db_parameter_group.poc_screena (expand)</title>
<polygon fill="none" stroke="black" points="392.83,-180 101.83,-180 101.83,-144 392.83,-144 392.83,-180"/>
<text text-anchor="middle" x="247.33" y="-158.3" font-family="Times,serif" font-size="14.00">aws_db_parameter_group.poc_screena</text>
</g>
<!-- [root] aws_db_instance.poc_screena (expand)&#45;&gt;[root] aws_db_parameter_group.poc_screena (expand) -->
<g id="edge1" class="edge">
<title>[root] aws_db_instance.poc_screena (expand)&#45;&gt;[root] aws_db_parameter_group.poc_screena (expand)</title>
<path fill="none" stroke="black" d="M552.62,-293.32C500.9,-285.52 439.71,-272.74 387.33,-252 346.26,-235.74 304.14,-207.01 276.98,-186.59"/>
<polygon fill="black" stroke="black" points="278.78,-183.56 268.7,-180.28 274.53,-189.13 278.78,-183.56"/>
</g>
<!-- [root] aws_db_subnet_group.poc_screena (expand) -->
<g id="node3" class="node">
<title>[root] aws_db_subnet_group.poc_screena (expand)</title>
<polygon fill="none" stroke="black" points="661.83,-252 396.83,-252 396.83,-216 661.83,-216 661.83,-252"/>
<text text-anchor="middle" x="529.33" y="-230.3" font-family="Times,serif" font-size="14.00">aws_db_subnet_group.poc_screena</text>
</g>
<!-- [root] aws_db_instance.poc_screena (expand)&#45;&gt;[root] aws_db_subnet_group.poc_screena (expand) -->
<g id="edge2" class="edge">
<title>[root] aws_db_instance.poc_screena (expand)&#45;&gt;[root] aws_db_subnet_group.poc_screena (expand)</title>
<path fill="none" stroke="black" d="M632.82,-287.88C614.49,-278.51 591.6,-266.81 572.01,-256.8"/>
<polygon fill="black" stroke="black" points="573.47,-253.62 562.98,-252.19 570.29,-259.86 573.47,-253.62"/>
</g>
<!-- [root] aws_security_group.allow_pgsql (expand) -->
<g id="node10" class="node">
<title>[root] aws_security_group.allow_pgsql (expand)</title>
<polygon fill="none" stroke="black" points="924.83,-252 679.83,-252 679.83,-216 924.83,-216 924.83,-252"/>
<text text-anchor="middle" x="802.33" y="-230.3" font-family="Times,serif" font-size="14.00">aws_security_group.allow_pgsql</text>
</g>
<!-- [root] aws_db_instance.poc_screena (expand)&#45;&gt;[root] aws_security_group.allow_pgsql (expand) -->
<g id="edge3" class="edge">
<title>[root] aws_db_instance.poc_screena (expand)&#45;&gt;[root] aws_security_group.allow_pgsql (expand)</title>
<path fill="none" stroke="black" d="M699.6,-287.88C717.8,-278.51 740.52,-266.81 759.97,-256.8"/>
<polygon fill="black" stroke="black" points="761.65,-259.88 768.94,-252.19 758.44,-253.65 761.65,-259.88"/>
</g>
<!-- [root] var.db_password -->
<g id="node19" class="node">
<title>[root] var.db_password</title>
<polygon fill="none" stroke="black" points="1073.33,-252 943.33,-252 943.33,-216 1079.33,-216 1079.33,-246 1073.33,-252"/>
<polyline fill="none" stroke="black" points="1073.33,-252 1073.33,-246 "/>
<polyline fill="none" stroke="black" points="1079.33,-246 1073.33,-246 "/>
<text text-anchor="middle" x="1011.33" y="-230.3" font-family="Times,serif" font-size="14.00">var.db_password</text>
</g>
<!-- [root] aws_db_instance.poc_screena (expand)&#45;&gt;[root] var.db_password -->
<g id="edge4" class="edge">
<title>[root] aws_db_instance.poc_screena (expand)&#45;&gt;[root] var.db_password</title>
<path fill="none" stroke="black" d="M755.16,-287.94C804.84,-278.28 868.14,-265.77 933.29,-252.2"/>
<polygon fill="black" stroke="black" points="934.26,-255.57 943.33,-250.1 932.83,-248.72 934.26,-255.57"/>
</g>
<!-- [root] provider[&quot;registry.terraform.io/hashicorp/aws&quot;] -->
<g id="node18" class="node">
<title>[root] provider[&quot;registry.terraform.io/hashicorp/aws&quot;]</title>
<polygon fill="none" stroke="black" points="1663.33,-36 1338.07,-18 1663.33,0 1988.6,-18 1663.33,-36"/>
<text text-anchor="middle" x="1663.33" y="-14.3" font-family="Times,serif" font-size="14.00">provider[&quot;registry.terraform.io/hashicorp/aws&quot;]</text>
</g>
<!-- [root] aws_db_parameter_group.poc_screena (expand)&#45;&gt;[root] provider[&quot;registry.terraform.io/hashicorp/aws&quot;] -->
<g id="edge5" class="edge">
<title>[root] aws_db_parameter_group.poc_screena (expand)&#45;&gt;[root] provider[&quot;registry.terraform.io/hashicorp/aws&quot;]</title>
<path fill="none" stroke="black" d="M230.91,-143.8C214.1,-124.13 192.97,-92.08 212.33,-72 251.33,-31.55 939.89,-21.74 1354.26,-19.51"/>
<polygon fill="black" stroke="black" points="1354.32,-23.01 1364.3,-19.45 1354.28,-16.01 1354.32,-23.01"/>
</g>
<!-- [root] aws_subnet.a (expand) -->
<g id="node12" class="node">
<title>[root] aws_subnet.a (expand)</title>
<polygon fill="none" stroke="black" points="1253.83,-180 1140.83,-180 1140.83,-144 1253.83,-144 1253.83,-180"/>
<text text-anchor="middle" x="1197.33" y="-158.3" font-family="Times,serif" font-size="14.00">aws_subnet.a</text>
</g>
<!-- [root] aws_db_subnet_group.poc_screena (expand)&#45;&gt;[root] aws_subnet.a (expand) -->
<g id="edge6" class="edge">
<title>[root] aws_db_subnet_group.poc_screena (expand)&#45;&gt;[root] aws_subnet.a (expand)</title>
<path fill="none" stroke="black" d="M662.17,-216.91C664.91,-216.6 667.64,-216.3 670.33,-216 835.79,-197.71 1030.78,-178.78 1130.79,-169.27"/>
<polygon fill="black" stroke="black" points="1131.13,-172.75 1140.75,-168.32 1130.47,-165.78 1131.13,-172.75"/>
</g>
<!-- [root] aws_subnet.b (expand) -->
<g id="node13" class="node">
<title>[root] aws_subnet.b (expand)</title>
<polygon fill="none" stroke="black" points="585.83,-180 472.83,-180 472.83,-144 585.83,-144 585.83,-180"/>
<text text-anchor="middle" x="529.33" y="-158.3" font-family="Times,serif" font-size="14.00">aws_subnet.b</text>
</g>
<!-- [root] aws_db_subnet_group.poc_screena (expand)&#45;&gt;[root] aws_subnet.b (expand) -->
<g id="edge7" class="edge">
<title>[root] aws_db_subnet_group.poc_screena (expand)&#45;&gt;[root] aws_subnet.b (expand)</title>
<path fill="none" stroke="black" d="M529.33,-215.7C529.33,-207.98 529.33,-198.71 529.33,-190.11"/>
<polygon fill="black" stroke="black" points="532.83,-190.1 529.33,-180.1 525.83,-190.1 532.83,-190.1"/>
</g>
<!-- [root] aws_subnet.c (expand) -->
<g id="node14" class="node">
<title>[root] aws_subnet.c (expand)</title>
<polygon fill="none" stroke="black" points="840.33,-180 728.33,-180 728.33,-144 840.33,-144 840.33,-180"/>
<text text-anchor="middle" x="784.33" y="-158.3" font-family="Times,serif" font-size="14.00">aws_subnet.c</text>
</g>
<!-- [root] aws_db_subnet_group.poc_screena (expand)&#45;&gt;[root] aws_subnet.c (expand) -->
<g id="edge8" class="edge">
<title>[root] aws_db_subnet_group.poc_screena (expand)&#45;&gt;[root] aws_subnet.c (expand)</title>
<path fill="none" stroke="black" d="M591.39,-215.97C629.85,-205.41 679.21,-191.86 718.38,-181.11"/>
<polygon fill="black" stroke="black" points="719.39,-184.46 728.1,-178.44 717.54,-177.71 719.39,-184.46"/>
</g>
<!-- [root] aws_eip.secondary_public (expand) -->
<g id="node4" class="node">
<title>[root] aws_eip.secondary_public (expand)</title>
<polygon fill="none" stroke="black" points="1576.33,-324 1376.33,-324 1376.33,-288 1576.33,-288 1576.33,-324"/>
<text text-anchor="middle" x="1476.33" y="-302.3" font-family="Times,serif" font-size="14.00">aws_eip.secondary_public</text>
</g>
<!-- [root] aws_network_interface.secondary_public (expand) -->
<g id="node9" class="node">
<title>[root] aws_network_interface.secondary_public (expand)</title>
<polygon fill="none" stroke="black" points="1777.33,-252 1469.33,-252 1469.33,-216 1777.33,-216 1777.33,-252"/>
<text text-anchor="middle" x="1623.33" y="-230.3" font-family="Times,serif" font-size="14.00">aws_network_interface.secondary_public</text>
</g>
<!-- [root] aws_eip.secondary_public (expand)&#45;&gt;[root] aws_network_interface.secondary_public (expand) -->
<g id="edge9" class="edge">
<title>[root] aws_eip.secondary_public (expand)&#45;&gt;[root] aws_network_interface.secondary_public (expand)</title>
<path fill="none" stroke="black" d="M1512.29,-287.88C1532.21,-278.39 1557.16,-266.51 1578.35,-256.42"/>
<polygon fill="black" stroke="black" points="1579.97,-259.53 1587.49,-252.07 1576.96,-253.21 1579.97,-259.53"/>
</g>
<!-- [root] aws_instance.poc_screena (expand) -->
<g id="node5" class="node">
<title>[root] aws_instance.poc_screena (expand)</title>
<polygon fill="none" stroke="black" points="1835.83,-180 1632.83,-180 1632.83,-144 1835.83,-144 1835.83,-180"/>
<text text-anchor="middle" x="1734.33" y="-158.3" font-family="Times,serif" font-size="14.00">aws_instance.poc_screena</text>
</g>
<!-- [root] aws_key_pair.poc_screena (expand) -->
<g id="node7" class="node">
<title>[root] aws_key_pair.poc_screena (expand)</title>
<polygon fill="none" stroke="black" points="2184.83,-108 1983.83,-108 1983.83,-72 2184.83,-72 2184.83,-108"/>
<text text-anchor="middle" x="2084.33" y="-86.3" font-family="Times,serif" font-size="14.00">aws_key_pair.poc_screena</text>
</g>
<!-- [root] aws_instance.poc_screena (expand)&#45;&gt;[root] aws_key_pair.poc_screena (expand) -->
<g id="edge10" class="edge">
<title>[root] aws_instance.poc_screena (expand)&#45;&gt;[root] aws_key_pair.poc_screena (expand)</title>
<path fill="none" stroke="black" d="M1819.51,-143.97C1870.74,-133.72 1936.06,-120.66 1989.01,-110.07"/>
<polygon fill="black" stroke="black" points="1989.96,-113.44 1999.08,-108.05 1988.59,-106.58 1989.96,-113.44"/>
</g>
<!-- [root] aws_security_group.allow_ssh (expand) -->
<g id="node11" class="node">
<title>[root] aws_security_group.allow_ssh (expand)</title>
<polygon fill="none" stroke="black" points="1778.33,-108 1548.33,-108 1548.33,-72 1778.33,-72 1778.33,-108"/>
<text text-anchor="middle" x="1663.33" y="-86.3" font-family="Times,serif" font-size="14.00">aws_security_group.allow_ssh</text>
</g>
<!-- [root] aws_instance.poc_screena (expand)&#45;&gt;[root] aws_security_group.allow_ssh (expand) -->
<g id="edge11" class="edge">
<title>[root] aws_instance.poc_screena (expand)&#45;&gt;[root] aws_security_group.allow_ssh (expand)</title>
<path fill="none" stroke="black" d="M1716.78,-143.7C1708.1,-135.14 1697.47,-124.66 1687.99,-115.3"/>
<polygon fill="black" stroke="black" points="1690.26,-112.63 1680.68,-108.1 1685.35,-117.62 1690.26,-112.63"/>
</g>
<!-- [root] data.aws_ami.ubuntu (expand) -->
<g id="node17" class="node">
<title>[root] data.aws_ami.ubuntu (expand)</title>
<polygon fill="none" stroke="black" points="1965.83,-108 1796.83,-108 1796.83,-72 1965.83,-72 1965.83,-108"/>
<text text-anchor="middle" x="1881.33" y="-86.3" font-family="Times,serif" font-size="14.00">data.aws_ami.ubuntu</text>
</g>
<!-- [root] aws_instance.poc_screena (expand)&#45;&gt;[root] data.aws_ami.ubuntu (expand) -->
<g id="edge12" class="edge">
<title>[root] aws_instance.poc_screena (expand)&#45;&gt;[root] data.aws_ami.ubuntu (expand)</title>
<path fill="none" stroke="black" d="M1770.29,-143.88C1790.21,-134.39 1815.16,-122.51 1836.35,-112.42"/>
<polygon fill="black" stroke="black" points="1837.97,-115.53 1845.49,-108.07 1834.96,-109.21 1837.97,-115.53"/>
</g>
<!-- [root] aws_internet_gateway.poc_screena (expand) -->
<g id="node6" class="node">
<title>[root] aws_internet_gateway.poc_screena (expand)</title>
<polygon fill="none" stroke="black" points="1251.83,-324 986.83,-324 986.83,-288 1251.83,-288 1251.83,-324"/>
<text text-anchor="middle" x="1119.33" y="-302.3" font-family="Times,serif" font-size="14.00">aws_internet_gateway.poc_screena</text>
</g>
<!-- [root] aws_vpc.poc_screena (expand) -->
<g id="node16" class="node">
<title>[root] aws_vpc.poc_screena (expand)</title>
<polygon fill="none" stroke="black" points="1149.83,-108 982.83,-108 982.83,-72 1149.83,-72 1149.83,-108"/>
<text text-anchor="middle" x="1066.33" y="-86.3" font-family="Times,serif" font-size="14.00">aws_vpc.poc_screena</text>
</g>
<!-- [root] aws_internet_gateway.poc_screena (expand)&#45;&gt;[root] aws_vpc.poc_screena (expand) -->
<g id="edge13" class="edge">
<title>[root] aws_internet_gateway.poc_screena (expand)&#45;&gt;[root] aws_vpc.poc_screena (expand)</title>
<path fill="none" stroke="black" d="M1115.09,-287.85C1105.9,-250.75 1084.12,-162.81 1073.05,-118.1"/>
<polygon fill="black" stroke="black" points="1076.4,-117.1 1070.6,-108.23 1069.61,-118.78 1076.4,-117.1"/>
</g>
<!-- [root] aws_key_pair.poc_screena (expand)&#45;&gt;[root] provider[&quot;registry.terraform.io/hashicorp/aws&quot;] -->
<g id="edge14" class="edge">
<title>[root] aws_key_pair.poc_screena (expand)&#45;&gt;[root] provider[&quot;registry.terraform.io/hashicorp/aws&quot;]</title>
<path fill="none" stroke="black" d="M1983.76,-72.28C1912.62,-60.45 1818.19,-44.75 1750.3,-33.46"/>
<polygon fill="black" stroke="black" points="1750.5,-29.94 1740.06,-31.76 1749.35,-36.85 1750.5,-29.94"/>
</g>
<!-- [root] aws_network_interface.secondary_private (expand) -->
<g id="node8" class="node">
<title>[root] aws_network_interface.secondary_private (expand)</title>
<polygon fill="none" stroke="black" points="1450.83,-252 1135.83,-252 1135.83,-216 1450.83,-216 1450.83,-252"/>
<text text-anchor="middle" x="1293.33" y="-230.3" font-family="Times,serif" font-size="14.00">aws_network_interface.secondary_private</text>
</g>
<!-- [root] aws_network_interface.secondary_private (expand)&#45;&gt;[root] aws_instance.poc_screena (expand) -->
<g id="edge15" class="edge">
<title>[root] aws_network_interface.secondary_private (expand)&#45;&gt;[root] aws_instance.poc_screena (expand)</title>
<path fill="none" stroke="black" d="M1400.65,-215.97C1467.96,-205.28 1554.58,-191.53 1622.7,-180.72"/>
<polygon fill="black" stroke="black" points="1623.28,-184.17 1632.61,-179.15 1622.18,-177.26 1623.28,-184.17"/>
</g>
<!-- [root] aws_network_interface.secondary_private (expand)&#45;&gt;[root] aws_subnet.a (expand) -->
<g id="edge16" class="edge">
<title>[root] aws_network_interface.secondary_private (expand)&#45;&gt;[root] aws_subnet.a (expand)</title>
<path fill="none" stroke="black" d="M1269.6,-215.7C1257.4,-206.8 1242.35,-195.82 1229.15,-186.2"/>
<polygon fill="black" stroke="black" points="1230.93,-183.17 1220.79,-180.1 1226.81,-188.82 1230.93,-183.17"/>
</g>
<!-- [root] aws_network_interface.secondary_public (expand)&#45;&gt;[root] aws_instance.poc_screena (expand) -->
<g id="edge17" class="edge">
<title>[root] aws_network_interface.secondary_public (expand)&#45;&gt;[root] aws_instance.poc_screena (expand)</title>
<path fill="none" stroke="black" d="M1650.49,-215.88C1664.87,-206.81 1682.72,-195.55 1698.24,-185.76"/>
<polygon fill="black" stroke="black" points="1700.48,-188.48 1707.08,-180.19 1696.75,-182.56 1700.48,-188.48"/>
</g>
<!-- [root] aws_subnet.public (expand) -->
<g id="node15" class="node">
<title>[root] aws_subnet.public (expand)</title>
<polygon fill="none" stroke="black" points="1423.33,-180 1275.33,-180 1275.33,-144 1423.33,-144 1423.33,-180"/>
<text text-anchor="middle" x="1349.33" y="-158.3" font-family="Times,serif" font-size="14.00">aws_subnet.public</text>
</g>
<!-- [root] aws_network_interface.secondary_public (expand)&#45;&gt;[root] aws_subnet.public (expand) -->
<g id="edge18" class="edge">
<title>[root] aws_network_interface.secondary_public (expand)&#45;&gt;[root] aws_subnet.public (expand)</title>
<path fill="none" stroke="black" d="M1556.66,-215.97C1517.21,-205.89 1467.09,-193.08 1426.01,-182.59"/>
<polygon fill="black" stroke="black" points="1426.87,-179.2 1416.31,-180.11 1425.13,-185.98 1426.87,-179.2"/>
</g>
<!-- [root] aws_security_group.allow_pgsql (expand)&#45;&gt;[root] aws_vpc.poc_screena (expand) -->
<g id="edge19" class="edge">
<title>[root] aws_security_group.allow_pgsql (expand)&#45;&gt;[root] aws_vpc.poc_screena (expand)</title>
<path fill="none" stroke="black" d="M834.18,-215.87C882.05,-190.12 972.54,-141.45 1025.3,-113.07"/>
<polygon fill="black" stroke="black" points="1027.23,-116.01 1034.38,-108.19 1023.91,-109.84 1027.23,-116.01"/>
</g>
<!-- [root] aws_security_group.allow_ssh (expand)&#45;&gt;[root] provider[&quot;registry.terraform.io/hashicorp/aws&quot;] -->
<g id="edge20" class="edge">
<title>[root] aws_security_group.allow_ssh (expand)&#45;&gt;[root] provider[&quot;registry.terraform.io/hashicorp/aws&quot;]</title>
<path fill="none" stroke="black" d="M1663.33,-71.7C1663.33,-63.98 1663.33,-54.71 1663.33,-46.11"/>
<polygon fill="black" stroke="black" points="1666.83,-46.1 1663.33,-36.1 1659.83,-46.1 1666.83,-46.1"/>
</g>
<!-- [root] aws_subnet.a (expand)&#45;&gt;[root] aws_vpc.poc_screena (expand) -->
<g id="edge21" class="edge">
<title>[root] aws_subnet.a (expand)&#45;&gt;[root] aws_vpc.poc_screena (expand)</title>
<path fill="none" stroke="black" d="M1165.29,-143.88C1147.84,-134.55 1126.07,-122.92 1107.39,-112.94"/>
<polygon fill="black" stroke="black" points="1108.97,-109.82 1098.5,-108.19 1105.67,-115.99 1108.97,-109.82"/>
</g>
<!-- [root] local.av_zone_west1a (expand) -->
<g id="node20" class="node">
<title>[root] local.av_zone_west1a (expand)</title>
<ellipse fill="none" stroke="black" cx="1349.33" cy="-90" rx="181.17" ry="18"/>
<text text-anchor="middle" x="1349.33" y="-86.3" font-family="Times,serif" font-size="14.00">[root] local.av_zone_west1a (expand)</text>
</g>
<!-- [root] aws_subnet.a (expand)&#45;&gt;[root] local.av_zone_west1a (expand) -->
<g id="edge22" class="edge">
<title>[root] aws_subnet.a (expand)&#45;&gt;[root] local.av_zone_west1a (expand)</title>
<path fill="none" stroke="black" d="M1234.52,-143.88C1255.43,-134.24 1281.72,-122.14 1303.85,-111.95"/>
<polygon fill="black" stroke="black" points="1305.44,-115.07 1313.06,-107.71 1302.51,-108.71 1305.44,-115.07"/>
</g>
<!-- [root] aws_subnet.b (expand)&#45;&gt;[root] aws_vpc.poc_screena (expand) -->
<g id="edge23" class="edge">
<title>[root] aws_subnet.b (expand)&#45;&gt;[root] aws_vpc.poc_screena (expand)</title>
<path fill="none" stroke="black" d="M586.04,-155.42C668.85,-147.02 827.95,-129.89 972.68,-108.2"/>
<polygon fill="black" stroke="black" points="973.27,-111.66 982.64,-106.7 972.23,-104.73 973.27,-111.66"/>
</g>
<!-- [root] local.av_zone_west1b (expand) -->
<g id="node21" class="node">
<title>[root] local.av_zone_west1b (expand)</title>
<ellipse fill="none" stroke="black" cx="403.33" cy="-90" rx="181.97" ry="18"/>
<text text-anchor="middle" x="403.33" y="-86.3" font-family="Times,serif" font-size="14.00">[root] local.av_zone_west1b (expand)</text>
</g>
<!-- [root] aws_subnet.b (expand)&#45;&gt;[root] local.av_zone_west1b (expand) -->
<g id="edge24" class="edge">
<title>[root] aws_subnet.b (expand)&#45;&gt;[root] local.av_zone_west1b (expand)</title>
<path fill="none" stroke="black" d="M498.51,-143.88C481.76,-134.57 460.86,-122.96 442.92,-112.99"/>
<polygon fill="black" stroke="black" points="444.28,-109.74 433.84,-107.95 440.88,-115.86 444.28,-109.74"/>
</g>
<!-- [root] aws_subnet.c (expand)&#45;&gt;[root] aws_vpc.poc_screena (expand) -->
<g id="edge25" class="edge">
<title>[root] aws_subnet.c (expand)&#45;&gt;[root] aws_vpc.poc_screena (expand)</title>
<path fill="none" stroke="black" d="M840.39,-147.09C882.6,-136.61 941.01,-122.11 987.86,-110.48"/>
<polygon fill="black" stroke="black" points="988.81,-113.85 997.68,-108.04 987.13,-107.06 988.81,-113.85"/>
</g>
<!-- [root] local.av_zone_west1c (expand) -->
<g id="node22" class="node">
<title>[root] local.av_zone_west1c (expand)</title>
<ellipse fill="none" stroke="black" cx="784.33" cy="-90" rx="180.87" ry="18"/>
<text text-anchor="middle" x="784.33" y="-86.3" font-family="Times,serif" font-size="14.00">[root] local.av_zone_west1c (expand)</text>
</g>
<!-- [root] aws_subnet.c (expand)&#45;&gt;[root] local.av_zone_west1c (expand) -->
<g id="edge26" class="edge">
<title>[root] aws_subnet.c (expand)&#45;&gt;[root] local.av_zone_west1c (expand)</title>
<path fill="none" stroke="black" d="M784.33,-143.7C784.33,-135.98 784.33,-126.71 784.33,-118.11"/>
<polygon fill="black" stroke="black" points="787.83,-118.1 784.33,-108.1 780.83,-118.1 787.83,-118.1"/>
</g>
<!-- [root] aws_subnet.public (expand)&#45;&gt;[root] aws_vpc.poc_screena (expand) -->
<g id="edge27" class="edge">
<title>[root] aws_subnet.public (expand)&#45;&gt;[root] aws_vpc.poc_screena (expand)</title>
<path fill="none" stroke="black" d="M1280.47,-143.97C1239.64,-133.87 1187.73,-121.03 1145.26,-110.52"/>
<polygon fill="black" stroke="black" points="1146.06,-107.11 1135.51,-108.11 1144.38,-113.91 1146.06,-107.11"/>
</g>
<!-- [root] aws_subnet.public (expand)&#45;&gt;[root] local.av_zone_west1a (expand) -->
<g id="edge28" class="edge">
<title>[root] aws_subnet.public (expand)&#45;&gt;[root] local.av_zone_west1a (expand)</title>
<path fill="none" stroke="black" d="M1349.33,-143.7C1349.33,-135.98 1349.33,-126.71 1349.33,-118.11"/>
<polygon fill="black" stroke="black" points="1352.83,-118.1 1349.33,-108.1 1345.83,-118.1 1352.83,-118.1"/>
</g>
<!-- [root] aws_vpc.poc_screena (expand)&#45;&gt;[root] provider[&quot;registry.terraform.io/hashicorp/aws&quot;] -->
<g id="edge29" class="edge">
<title>[root] aws_vpc.poc_screena (expand)&#45;&gt;[root] provider[&quot;registry.terraform.io/hashicorp/aws&quot;]</title>
<path fill="none" stroke="black" d="M1149.94,-73.41C1153.11,-72.92 1156.25,-72.44 1159.33,-72 1285.02,-53.93 1429.17,-39.39 1531.02,-30.14"/>
<polygon fill="black" stroke="black" points="1531.41,-33.62 1541.06,-29.24 1530.78,-26.65 1531.41,-33.62"/>
</g>
<!-- [root] data.aws_ami.ubuntu (expand)&#45;&gt;[root] provider[&quot;registry.terraform.io/hashicorp/aws&quot;] -->
<g id="edge30" class="edge">
<title>[root] data.aws_ami.ubuntu (expand)&#45;&gt;[root] provider[&quot;registry.terraform.io/hashicorp/aws&quot;]</title>
<path fill="none" stroke="black" d="M1828.28,-71.97C1794.9,-61.25 1751.92,-47.44 1718.2,-36.62"/>
<polygon fill="black" stroke="black" points="1719.09,-33.23 1708.5,-33.5 1716.95,-39.89 1719.09,-33.23"/>
</g>
<!-- [root] output.client_passwd (expand) -->
<g id="node23" class="node">
<title>[root] output.client_passwd (expand)</title>
<ellipse fill="none" stroke="black" cx="1791.33" cy="-306" rx="181.17" ry="18"/>
<text text-anchor="middle" x="1791.33" y="-302.3" font-family="Times,serif" font-size="14.00">[root] output.client_passwd (expand)</text>
</g>
<!-- [root] output.client_passwd (expand)&#45;&gt;[root] aws_instance.poc_screena (expand) -->
<g id="edge31" class="edge">
<title>[root] output.client_passwd (expand)&#45;&gt;[root] aws_instance.poc_screena (expand)</title>
<path fill="none" stroke="black" d="M1793.83,-287.77C1795.76,-269.21 1796.59,-239.22 1786.33,-216 1781.5,-205.06 1773.34,-195.08 1764.89,-186.81"/>
<polygon fill="black" stroke="black" points="1767.21,-184.19 1757.48,-180 1762.47,-189.34 1767.21,-184.19"/>
</g>
<!-- [root] output.rds_hostname (expand) -->
<g id="node24" class="node">
<title>[root] output.rds_hostname (expand)</title>
<ellipse fill="none" stroke="black" cx="181.33" cy="-378" rx="181.17" ry="18"/>
<text text-anchor="middle" x="181.33" y="-374.3" font-family="Times,serif" font-size="14.00">[root] output.rds_hostname (expand)</text>
</g>
<!-- [root] output.rds_hostname (expand)&#45;&gt;[root] aws_db_instance.poc_screena (expand) -->
<g id="edge32" class="edge">
<title>[root] output.rds_hostname (expand)&#45;&gt;[root] aws_db_instance.poc_screena (expand)</title>
<path fill="none" stroke="black" d="M279.48,-362.83C355.26,-351.9 460.62,-336.69 542.25,-324.91"/>
<polygon fill="black" stroke="black" points="543.19,-328.31 552.59,-323.42 542.19,-321.38 543.19,-328.31"/>
</g>
<!-- [root] output.rds_port (expand) -->
<g id="node25" class="node">
<title>[root] output.rds_port (expand)</title>
<ellipse fill="none" stroke="black" cx="536.33" cy="-378" rx="155.17" ry="18"/>
<text text-anchor="middle" x="536.33" y="-374.3" font-family="Times,serif" font-size="14.00">[root] output.rds_port (expand)</text>
</g>
<!-- [root] output.rds_port (expand)&#45;&gt;[root] aws_db_instance.poc_screena (expand) -->
<g id="edge33" class="edge">
<title>[root] output.rds_port (expand)&#45;&gt;[root] aws_db_instance.poc_screena (expand)</title>
<path fill="none" stroke="black" d="M567.47,-360.23C584.9,-350.85 606.84,-339.04 625.62,-328.93"/>
<polygon fill="black" stroke="black" points="627.4,-331.94 634.55,-324.12 624.08,-325.78 627.4,-331.94"/>
</g>
<!-- [root] output.rds_username (expand) -->
<g id="node26" class="node">
<title>[root] output.rds_username (expand)</title>
<ellipse fill="none" stroke="black" cx="891.33" cy="-378" rx="181.97" ry="18"/>
<text text-anchor="middle" x="891.33" y="-374.3" font-family="Times,serif" font-size="14.00">[root] output.rds_username (expand)</text>
</g>
<!-- [root] output.rds_username (expand)&#45;&gt;[root] aws_db_instance.poc_screena (expand) -->
<g id="edge34" class="edge">
<title>[root] output.rds_username (expand)&#45;&gt;[root] aws_db_instance.poc_screena (expand)</title>
<path fill="none" stroke="black" d="M838.87,-360.68C806.72,-350.68 765.32,-337.8 731.14,-327.16"/>
<polygon fill="black" stroke="black" points="731.83,-323.71 721.24,-324.08 729.75,-330.39 731.83,-323.71"/>
</g>
<!-- [root] provider[&quot;registry.terraform.io/hashicorp/aws&quot;] (close) -->
<g id="node27" class="node">
<title>[root] provider[&quot;registry.terraform.io/hashicorp/aws&quot;] (close)</title>
<ellipse fill="none" stroke="black" cx="1383.33" cy="-378" rx="291.65" ry="18"/>
<text text-anchor="middle" x="1383.33" y="-374.3" font-family="Times,serif" font-size="14.00">[root] provider[&quot;registry.terraform.io/hashicorp/aws&quot;] (close)</text>
</g>
<!-- [root] provider[&quot;registry.terraform.io/hashicorp/aws&quot;] (close)&#45;&gt;[root] aws_db_instance.poc_screena (expand) -->
<g id="edge35" class="edge">
<title>[root] provider[&quot;registry.terraform.io/hashicorp/aws&quot;] (close)&#45;&gt;[root] aws_db_instance.poc_screena (expand)</title>
<path fill="none" stroke="black" d="M1234.77,-362.5C1103.31,-349.66 913.7,-331.15 790.25,-319.1"/>
<polygon fill="black" stroke="black" points="790.29,-315.59 780,-318.1 789.61,-322.55 790.29,-315.59"/>
</g>
<!-- [root] provider[&quot;registry.terraform.io/hashicorp/aws&quot;] (close)&#45;&gt;[root] aws_eip.secondary_public (expand) -->
<g id="edge36" class="edge">
<title>[root] provider[&quot;registry.terraform.io/hashicorp/aws&quot;] (close)&#45;&gt;[root] aws_eip.secondary_public (expand)</title>
<path fill="none" stroke="black" d="M1406.32,-359.7C1418.15,-350.8 1432.73,-339.82 1445.51,-330.2"/>
<polygon fill="black" stroke="black" points="1447.72,-332.91 1453.61,-324.1 1443.52,-327.32 1447.72,-332.91"/>
</g>
<!-- [root] provider[&quot;registry.terraform.io/hashicorp/aws&quot;] (close)&#45;&gt;[root] aws_internet_gateway.poc_screena (expand) -->
<g id="edge37" class="edge">
<title>[root] provider[&quot;registry.terraform.io/hashicorp/aws&quot;] (close)&#45;&gt;[root] aws_internet_gateway.poc_screena (expand)</title>
<path fill="none" stroke="black" d="M1320.77,-360.41C1282.6,-350.29 1233.59,-337.3 1193.47,-326.66"/>
<polygon fill="black" stroke="black" points="1194.31,-323.26 1183.74,-324.08 1192.51,-330.02 1194.31,-323.26"/>
</g>
<!-- [root] provider[&quot;registry.terraform.io/hashicorp/aws&quot;] (close)&#45;&gt;[root] aws_network_interface.secondary_private (expand) -->
<g id="edge38" class="edge">
<title>[root] provider[&quot;registry.terraform.io/hashicorp/aws&quot;] (close)&#45;&gt;[root] aws_network_interface.secondary_private (expand)</title>
<path fill="none" stroke="black" d="M1372.48,-359.87C1356.87,-335.24 1327.96,-289.64 1309.74,-260.88"/>
<polygon fill="black" stroke="black" points="1312.54,-258.76 1304.23,-252.19 1306.63,-262.51 1312.54,-258.76"/>
</g>
<!-- [root] root -->
<g id="node28" class="node">
<title>[root] root</title>
<ellipse fill="none" stroke="black" cx="891.33" cy="-450" rx="58.49" ry="18"/>
<text text-anchor="middle" x="891.33" y="-446.3" font-family="Times,serif" font-size="14.00">[root] root</text>
</g>
<!-- [root] root&#45;&gt;[root] output.client_passwd (expand) -->
<g id="edge39" class="edge">
<title>[root] root&#45;&gt;[root] output.client_passwd (expand)</title>
<path fill="none" stroke="black" d="M949.89,-449.72C1109.8,-450.97 1550.93,-449.33 1684.33,-396 1718.9,-382.18 1750.62,-352.76 1770.4,-331.52"/>
<polygon fill="black" stroke="black" points="1772.99,-333.86 1777.12,-324.11 1767.81,-329.16 1772.99,-333.86"/>
</g>
<!-- [root] root&#45;&gt;[root] output.rds_hostname (expand) -->
<g id="edge40" class="edge">
<title>[root] root&#45;&gt;[root] output.rds_hostname (expand)</title>
<path fill="none" stroke="black" d="M836.51,-443.59C725.75,-432.67 472.51,-407.71 315.31,-392.21"/>
<polygon fill="black" stroke="black" points="315.39,-388.7 305.09,-391.2 314.7,-395.67 315.39,-388.7"/>
</g>
<!-- [root] root&#45;&gt;[root] output.rds_port (expand) -->
<g id="edge41" class="edge">
<title>[root] root&#45;&gt;[root] output.rds_port (expand)</title>
<path fill="none" stroke="black" d="M843.46,-439.56C786.64,-428.36 690.85,-409.47 621.33,-395.76"/>
<polygon fill="black" stroke="black" points="621.76,-392.28 611.27,-393.78 620.41,-399.14 621.76,-392.28"/>
</g>
<!-- [root] root&#45;&gt;[root] output.rds_username (expand) -->
<g id="edge42" class="edge">
<title>[root] root&#45;&gt;[root] output.rds_username (expand)</title>
<path fill="none" stroke="black" d="M891.33,-431.7C891.33,-423.98 891.33,-414.71 891.33,-406.11"/>
<polygon fill="black" stroke="black" points="894.83,-406.1 891.33,-396.1 887.83,-406.1 894.83,-406.1"/>
</g>
<!-- [root] root&#45;&gt;[root] provider[&quot;registry.terraform.io/hashicorp/aws&quot;] (close) -->
<g id="edge43" class="edge">
<title>[root] root&#45;&gt;[root] provider[&quot;registry.terraform.io/hashicorp/aws&quot;] (close)</title>
<path fill="none" stroke="black" d="M943.52,-441.58C1019.03,-430.83 1160.89,-410.65 1263.12,-396.1"/>
<polygon fill="black" stroke="black" points="1263.78,-399.54 1273.19,-394.67 1262.8,-392.61 1263.78,-399.54"/>
</g>
</g>
</svg>
